<svg xmlns="http://www.w3.org/2000/svg" viewBox="0 0 100 100" width="100" height="100">
  <!-- Shield Background -->
  <path d="M50 5 L90 20 L90 50 C90 75 50 95 50 95 C50 95 10 75 10 50 L10 20 Z" fill="#2a663a"/>
  <path d="M50 10 L85 23 L85 48 C85 70 50 88 50 88 C50 88 15 70 15 48 L15 23 Z" fill="#e30917"/>

  <!-- Inner Shield -->
  <path d="M50 15 L80 26 L80 46 C80 65 50 81 50 81 C50 81 20 65 20 46 L20 26 Z" fill="#fff"/>

  <!-- Rose Symbol -->
  <circle cx="50" cy="45" r="12" fill="#e30917"/>
  <circle cx="50" cy="45" r="8" fill="#fff"/>
  <circle cx="50" cy="45" r="4" fill="#f9eb10"/>

  <!-- Petals -->
  <circle cx="42" cy="38" r="5" fill="#e30917"/>
  <circle cx="58" cy="38" r="5" fill="#e30917"/>
  <circle cx="42" cy="52" r="5" fill="#e30917"/>
  <circle cx="58" cy="52" r="5" fill="#e30917"/>

  <!-- Year Banner -->
  <rect x="25" y="65" width="50" height="12" fill="#2a663a"/>
  <text x="50" y="74" font-family="Arial, sans-serif" font-size="8" font-weight="bold" fill="#fff" text-anchor="middle">EST. 1929</text>
</svg>
